<svg width="72" height="260" viewBox="0 0 72 260" fill="none" xmlns="http://www.w3.org/2000/svg">
<path d="M-4.75743e-06 151.163L-6.60754e-06 108.837C-8.01714e-06 76.5891 17.3806 67.0143 35.0629 56.7039C53.3698 46.0294 72 35.2713 72 -3.14722e-06L72 260C72 224.729 53.3698 213.971 35.0629 203.296C17.3807 192.986 -3.34782e-06 183.411 -4.75743e-06 151.163Z" fill="#FD835F"/>
<path d="M21.3334 122V143.333L30.6667 138L41.3334 143.333L50.6667 138V116.667L41.3334 122L30.6667 116.667L21.3334 122Z" stroke="#F3F3F3" stroke-width="2" stroke-linecap="round" stroke-linejoin="round"/>
<path d="M30.6666 116.667V138" stroke="#F3F3F3" stroke-width="2" stroke-linecap="round" stroke-linejoin="round"/>
<path d="M41.3334 122V143.333" stroke="#F3F3F3" stroke-width="2" stroke-linecap="round" stroke-linejoin="round"/>
</svg>
