<svg width="478" height="149" viewBox="0 0 478 149" fill="none" xmlns="http://www.w3.org/2000/svg">
<path d="M6.9 85.5C5.4 75.7 6.6 65.1 6.2 55.2C5.9 47.5 3.9 36 8.7 29.3C13.4 22.9 25.2 22.4 32.4 22.9C40.8 23.4 49.8 26.3 54.3 34C63.4 49.2 57.1 70.5 45.8 82.3C38.6 89.8 9.6 102.6 6.9 85.5ZM27.2 71.2C32.9 72.5 39 61.2 39.9 57.1C41.3 50.7 36.6 45.7 30.6 44.3C22.7 42.3 24.4 49.1 24.3 55.1C24.3 58.8 22.1 70.1 27.2 71.2ZM88.5523 91.2C86.0523 95.8 78.0523 95.3 74.2523 89.6C69.5523 82.4 73.3523 67.8 72.4523 59.7C71.4523 51.7 64.0523 45.2 62.0523 37C60.1523 29.6 65.0523 22.7 73.1523 26.7C80.0523 30.1 81.0523 39.4 83.9523 45.7C87.3523 40.1 92.6523 24.2 101.652 28.5C107.452 31.2 103.852 39.7 101.952 43.8C100.152 47.6 97.8523 51.1 95.5523 54.5C91.9523 59.7 91.7523 61.3 92.5523 67.7C93.3523 77.9 93.9523 86 88.5523 91.2ZM119.779 92.6C115.379 95.7 110.779 93.2 108.679 88.8C104.779 80.4 106.979 65.3 107.679 56.4C108.079 52.3 108.079 45.1 111.179 41.8C115.479 37.3 121.279 40.7 123.579 45.6C128.579 56.4 126.079 72.1 123.879 83.3C123.179 86.7 122.779 90.4 119.779 92.6ZM106.679 30.9C104.979 25 109.879 18 115.679 16.4C118.779 15.5 127.579 17.4 125.979 22.4C129.179 32.5 110.779 44.7 106.679 30.9ZM132.723 92.1C128.123 87.1 129.823 74.7 130.123 68.5C130.623 59.6 129.123 38.4 138.523 33.7C144.423 30.8 150.923 35 153.923 40C157.723 46.1 159.923 52.9 163.923 59.1C163.523 52.6 161.423 42 166.523 36.6C171.423 31.5 178.523 34.3 179.423 41C181.323 53.4 182.923 73.8 177.223 85.9C168.123 105.5 151.723 71.3 147.623 64.6C146.623 68.7 142.223 102.2 132.723 92.1ZM192.311 86.1C179.911 73.7 183.111 52.8 193.011 40C197.811 33.7 212.111 20.2 220.311 28.1C225.911 33.6 225.011 41.2 218.011 43.3C208.911 46 201.211 53.6 200.711 63.6C200.511 68.7 202.511 74.1 207.211 76.5C209.711 77.7 215.411 78.7 217.311 75.7C219.711 71.8 214.411 72.7 212.511 70.6C210.311 68.3 210.211 63.1 211.611 60.3C216.011 51.4 232.111 57.3 234.411 65.4C241.711 91.4 209.311 103 192.311 86.1ZM317.808 93.5C313.608 91.9 313.308 86.2 313.108 82.5C312.608 75 313.008 67.6 312.008 60.1C308.208 63.9 302.508 71.7 296.508 71.3C290.208 70.9 286.608 61.1 283.808 56.5C279.308 66.7 284.008 80.7 276.908 90.3C273.708 94.6 268.908 94.6 265.808 90.2C262.308 85.1 263.708 77.8 264.408 72.1C265.208 64.1 266.408 56.1 267.608 48.2C268.308 43.5 268.508 37.7 271.608 33.8C280.408 23.1 292.208 38.3 297.008 45.2C301.408 38.3 311.708 22.2 321.608 30.9C325.308 34.1 325.608 40 326.408 44.5C327.708 51.9 328.708 59.3 329.008 66.7C329.308 72.3 330.408 98 317.808 93.5ZM338.36 93.4C328.06 90.4 333.26 77.8 335.06 70.4C337.46 60.5 340.46 50.7 343.66 41C346.36 32.8 350.96 27.2 360.26 26.9C370.76 26.7 372.66 39 375.46 47L387.16 79.9C388.76 84.3 389.16 87.6 385.26 90.8C381.36 93.9 377.66 93.7 374.86 89.6C372.86 86.7 372.36 80.3 369.66 78C369.16 77.6 355.16 76.5 353.56 77.7C350.66 80.1 351.46 88 348.86 91.2C346.46 94.2 341.96 94.5 338.36 93.4ZM358.16 63.5C359.96 63.2 361.76 62.8 363.56 62.5C362.66 59.8 361.76 57.2 360.96 54.5C360.06 57.5 359.06 60.5 358.16 63.5ZM406.632 94C398.832 94.1 398.532 85.3 398.832 79.6C399.232 68.4 400.432 57.4 400.032 46.1C394.632 46.4 386.932 47.2 384.132 41.3C382.232 37.5 383.632 32.7 387.632 30.9C392.232 28.8 401.332 31.3 406.432 31.6C412.132 31.9 419.032 31 424.332 33.5C427.932 35.2 430.432 40 427.632 43.5C424.932 47 417.332 46.2 413.332 46.2C414.532 54.2 422.632 93.7 406.632 94ZM445.405 93.8C441.405 93.9 436.105 94.8 432.805 91.6C429.205 88.1 430.505 81.6 430.705 77.1C431.005 71.4 431.205 65.7 431.505 60C431.805 53.3 432.105 46.6 432.305 39.9C432.505 36.2 431.805 31.2 433.105 27.6C436.105 19.2 454.105 22.6 460.905 23.6C465.505 24.3 469.905 25.2 470.605 30.5C471.105 34.3 469.305 37.6 465.805 39C461.805 40.6 457.705 38 453.905 38.9C451.405 39.4 448.205 44.1 451.705 46.6C454.305 48.5 461.205 46.3 464.505 47.5C467.905 48.8 469.105 50.8 469.405 54.3C469.905 58.4 468.905 63.4 464.505 64.7C460.505 65.8 455.205 62 451.805 65.2C446.105 70.5 455.905 73.6 459.705 73.8C463.905 74 469.705 72.8 473.405 75.5C476.705 78 476.005 84 474.805 87.3C472.805 92.3 469.005 93 463.905 93.3C457.805 93.6 451.605 93.5 445.405 93.8Z" fill="white"/>
<path d="M3.9 81.5C2.4 71.7 3.6 61.1 3.2 51.2C2.9 43.5 0.9 32 5.7 25.3C10.4 18.9 22.2 18.4 29.4 18.9C37.8 19.4 46.8 22.3 51.3 30C60.4 45.2 54.1 66.5 42.8 78.3C35.6 85.8 6.6 98.6 3.9 81.5ZM24.2 67.2C29.9 68.5 36 57.2 36.9 53.1C38.3 46.7 33.6 41.7 27.6 40.3C19.7 38.3 21.4 45.1 21.3 51.1C21.3 54.8 19.1 66.1 24.2 67.2ZM85.5523 87.2C83.0523 91.8 75.0523 91.3 71.2523 85.6C66.5523 78.4 70.3523 63.8 69.4523 55.7C68.4523 47.7 61.0523 41.2 59.0523 33C57.1523 25.6 62.0523 18.7 70.1523 22.7C77.0523 26.1 78.0523 35.4 80.9523 41.7C84.3523 36.1 89.6523 20.2 98.6523 24.5C104.452 27.2 100.852 35.7 98.9523 39.8C97.1523 43.6 94.8523 47.1 92.5523 50.5C88.9523 55.7 88.7523 57.3 89.5523 63.7C90.3523 73.9 90.9523 82 85.5523 87.2ZM116.779 88.6C112.379 91.7 107.779 89.2 105.679 84.8C101.779 76.4 103.979 61.3 104.679 52.4C105.079 48.3 105.079 41.1 108.179 37.8C112.479 33.3 118.279 36.7 120.579 41.6C125.579 52.4 123.079 68.1 120.879 79.3C120.179 82.7 119.779 86.4 116.779 88.6ZM103.679 26.9C101.979 21 106.879 14 112.679 12.4C115.779 11.5 124.579 13.4 122.979 18.4C126.179 28.5 107.779 40.7 103.679 26.9ZM129.723 88.1C125.123 83.1 126.823 70.7 127.123 64.5C127.623 55.6 126.123 34.4 135.523 29.7C141.423 26.8 147.923 31 150.923 36C154.723 42.1 156.923 48.9 160.923 55.1C160.523 48.6 158.423 38 163.523 32.6C168.423 27.5 175.523 30.3 176.423 37C178.323 49.4 179.923 69.8 174.223 81.9C165.123 101.5 148.723 67.3 144.623 60.6C143.623 64.7 139.223 98.2 129.723 88.1ZM189.311 82.1C176.911 69.7 180.111 48.8 190.011 36C194.811 29.7 209.111 16.2 217.311 24.1C222.911 29.6 222.011 37.2 215.011 39.3C205.911 42 198.211 49.6 197.711 59.6C197.511 64.7 199.511 70.1 204.211 72.5C206.711 73.7 212.411 74.7 214.311 71.7C216.711 67.8 211.411 68.7 209.511 66.6C207.311 64.3 207.211 59.1 208.611 56.3C213.011 47.4 229.111 53.3 231.411 61.4C238.711 87.4 206.311 99 189.311 82.1ZM314.808 89.5C310.608 87.9 310.308 82.2 310.108 78.5C309.608 71 310.008 63.6 309.008 56.1C305.208 59.9 299.508 67.7 293.508 67.3C287.208 66.9 283.608 57.1 280.808 52.5C276.308 62.7 281.008 76.7 273.908 86.3C270.708 90.6 265.908 90.6 262.808 86.2C259.308 81.1 260.708 73.8 261.408 68.1C262.208 60.1 263.408 52.1 264.608 44.2C265.308 39.5 265.508 33.7 268.608 29.8C277.408 19.1 289.208 34.3 294.008 41.2C298.408 34.3 308.708 18.2 318.608 26.9C322.308 30.1 322.608 36 323.408 40.5C324.708 47.9 325.708 55.3 326.008 62.7C326.308 68.3 327.408 94 314.808 89.5ZM335.36 89.4C325.06 86.4 330.26 73.8 332.06 66.4C334.46 56.5 337.46 46.7 340.66 37C343.36 28.8 347.96 23.2 357.26 22.9C367.76 22.7 369.66 35 372.46 43L384.16 75.9C385.76 80.3 386.16 83.6 382.26 86.8C378.36 89.9 374.66 89.7 371.86 85.6C369.86 82.7 369.36 76.3 366.66 74C366.16 73.6 352.16 72.5 350.56 73.7C347.66 76.1 348.46 84 345.86 87.2C343.46 90.2 338.96 90.5 335.36 89.4ZM355.16 59.5C356.96 59.2 358.76 58.8 360.56 58.5C359.66 55.8 358.76 53.2 357.96 50.5C357.06 53.5 356.06 56.5 355.16 59.5ZM403.632 90C395.832 90.1 395.532 81.3 395.832 75.6C396.232 64.4 397.432 53.4 397.032 42.1C391.632 42.4 383.932 43.2 381.132 37.3C379.232 33.5 380.632 28.7 384.632 26.9C389.232 24.8 398.332 27.3 403.432 27.6C409.132 27.9 416.032 27 421.332 29.5C424.932 31.2 427.432 36 424.632 39.5C421.932 43 414.332 42.2 410.332 42.2C411.532 50.2 419.632 89.7 403.632 90ZM442.405 89.8C438.405 89.9 433.105 90.8 429.805 87.6C426.205 84.1 427.505 77.6 427.705 73.1C428.005 67.4 428.205 61.7 428.505 56C428.805 49.3 429.105 42.6 429.305 35.9C429.505 32.2 428.805 27.2 430.105 23.6C433.105 15.2 451.105 18.6 457.905 19.6C462.505 20.3 466.905 21.2 467.605 26.5C468.105 30.3 466.305 33.6 462.805 35C458.805 36.6 454.705 34 450.905 34.9C448.405 35.4 445.205 40.1 448.705 42.6C451.305 44.5 458.205 42.3 461.505 43.5C464.905 44.8 466.105 46.8 466.405 50.3C466.905 54.4 465.905 59.4 461.505 60.7C457.505 61.8 452.205 58 448.805 61.2C443.105 66.5 452.905 69.6 456.705 69.8C460.905 70 466.705 68.8 470.405 71.5C473.705 74 473.005 80 471.805 83.3C469.805 88.3 466.005 89 460.905 89.3C454.805 89.6 448.605 89.5 442.405 89.8Z" fill="#FD835F"/>
</svg>
