<svg width="73" height="24" viewBox="0 0 73 24" fill="none" xmlns="http://www.w3.org/2000/svg">
<rect x="18" y="7" width="3" height="10" rx="1" fill="black"/>
<rect x="3" y="13" width="3" height="4" rx="1" fill="black"/>
<rect x="8" y="11" width="3" height="6" rx="1" fill="black"/>
<rect x="13" y="9" width="3" height="8" rx="1" fill="black"/>
<path d="M35.6464 17.6464L33.7427 15.7427C33.6194 15.6194 33.6448 15.4131 33.7943 15.3234C35.1519 14.5088 36.8481 14.5088 38.2057 15.3234C38.3552 15.4131 38.3806 15.6194 38.2573 15.7427L36.3536 17.6464C36.1583 17.8417 35.8417 17.8417 35.6464 17.6464Z" fill="black"/>
<path d="M31.3244 13.3244L32.2938 14.2938C32.4102 14.4102 32.5965 14.4173 32.7214 14.3102C34.608 12.6931 37.392 12.6931 39.2786 14.3102C39.4035 14.4173 39.5898 14.4102 39.7062 14.2938L40.6756 13.3244C40.8519 13.1481 40.8443 12.8599 40.659 12.6931C38.0104 10.3093 33.9896 10.3093 31.341 12.6931C31.1556 12.8599 31.1481 13.1481 31.3244 13.3244Z" fill="black"/>
<path d="M28.392 10.392L29.2367 11.2367C29.3873 11.3873 29.6263 11.4029 29.7951 11.273C33.4532 8.4591 38.5468 8.4591 42.2049 11.273C42.3737 11.4029 42.6127 11.3873 42.7633 11.2367L43.608 10.392C43.8176 10.1824 43.7997 9.83726 43.5696 9.65029C39.1608 6.06811 32.8392 6.06811 28.4304 9.65029C28.2003 9.83726 28.1824 10.1824 28.392 10.392Z" fill="black"/>
<rect opacity="0.3" x="47.5" y="6.5" width="22" height="11" rx="2.5" stroke="black"/>
<rect x="49" y="8" width="19" height="8" rx="1" fill="black"/>
<path opacity="0.3" d="M71 14C72.1046 14 73 13.1046 73 12C73 10.8954 72.1046 10 71 10V14Z" fill="black"/>
</svg>
