<svg width="66" height="66" viewBox="0 0 66 66" fill="none" xmlns="http://www.w3.org/2000/svg">
<path d="M46.75 57.75V52.25C46.75 49.3326 45.5911 46.5347 43.5282 44.4718C41.4653 42.4089 38.6674 41.25 35.75 41.25H13.75C10.8326 41.25 8.03473 42.4089 5.97183 44.4718C3.90893 46.5347 2.75 49.3326 2.75 52.25V57.75" stroke="white" stroke-width="3.8" stroke-linecap="round" stroke-linejoin="round"/>
<path d="M24.75 30.25C30.8251 30.25 35.75 25.3251 35.75 19.25C35.75 13.1749 30.8251 8.25 24.75 8.25C18.6749 8.25 13.75 13.1749 13.75 19.25C13.75 25.3251 18.6749 30.25 24.75 30.25Z" stroke="white" stroke-width="3.8" stroke-linecap="round" stroke-linejoin="round"/>
<path d="M63.25 57.7499V52.2499C63.2482 49.8127 62.437 47.445 60.9438 45.5188C59.4505 43.5925 57.3599 42.2167 55 41.6074" stroke="white" stroke-width="3.8" stroke-linecap="round" stroke-linejoin="round"/>
<path d="M44 8.60742C46.3661 9.21325 48.4634 10.5893 49.961 12.5188C51.4587 14.4482 52.2716 16.8212 52.2716 19.2637C52.2716 21.7061 51.4587 24.0791 49.961 26.0086C48.4634 27.938 46.3661 29.3141 44 29.9199" stroke="white" stroke-width="3.8" stroke-linecap="round" stroke-linejoin="round"/>
</svg>
