{
    "asset" : {
        "generator" : "Khronos glTF Blender I/O v3.4.50",
        "version" : "2.0"
    },
    "scene" : 0,
    "scenes" : [
        {
            "name" : "Scene",
            "nodes" : [
                3
            ]
        }
    ],
    "nodes" : [
        {
            "mesh" : 0,
            "name" : "Cube.023",
            "rotation" : [
                -0.07628373801708221,
                -0.9970825910568237,
                0.0007408921956084669,
                0.00256752735003829
            ],
            "scale" : [
                0.7904725670814514,
                1.0172275304794312,
                0.9944035410881042
            ],
            "translation" : [
                -1.0723559856414795,
                3.32478404045105,
                0.4933212995529175
            ]
        },
        {
            "mesh" : 1,
            "name" : "Cube.074",
            "rotation" : [
                -0.037261560559272766,
                -0.9993019700050354,
                0.0006401714636012912,
                0.002594794612377882
            ],
            "scale" : [
                1.328281283378601,
                1.0053764581680298,
                1.330031156539917
            ],
            "translation" : [
                -0.7267228364944458,
                5.3111467361450195,
                0.46775901317596436
            ]
        },
        {
            "mesh" : 2,
            "name" : "Cube.183",
            "rotation" : [
                0.004203616175800562,
                -0.020537348464131355,
                0.002705825725570321,
                0.9997766017913818
            ],
            "scale" : [
                0.32451507449150085,
                0.32451510429382324,
                0.32451510429382324
            ],
            "translation" : [
                -1.771369457244873,
                3.503499746322632,
                0.4828677177429199
            ]
        },
        {
            "children" : [
                0,
                1,
                2
            ],
            "mesh" : 3,
            "name" : "Cube.050",
            "rotation" : [
                0.04387623071670532,
                -0.41745445132255554,
                -0.09487402439117432,
                0.9026658535003662
            ],
            "translation" : [
                10.387439727783203,
                0.38728833198547363,
                1.8397939205169678
            ]
        }
    ],
    "animations" : [
        {
            "channels" : [
                {
                    "sampler" : 0,
                    "target" : {
                        "node" : 3,
                        "path" : "rotation"
                    }
                }
            ],
            "name" : "Cube.050Action",
            "samplers" : [
                {
                    "input" : 28,
                    "interpolation" : "LINEAR",
                    "output" : 29
                }
            ]
        }
    ],
    "materials" : [
        {
            "doubleSided" : true,
            "emissiveFactor" : [
                1,
                1,
                1
            ],
            "emissiveTexture" : {
                "index" : 0
            },
            "name" : "grandmother",
            "pbrMetallicRoughness" : {
                "baseColorFactor" : [
                    0,
                    0,
                    0,
                    1
                ],
                "metallicFactor" : 0.7321428656578064,
                "roughnessFactor" : 0.7678571343421936
            }
        },
        {
            "doubleSided" : true,
            "emissiveFactor" : [
                1,
                1,
                1
            ],
            "emissiveTexture" : {
                "index" : 1
            },
            "name" : "chair",
            "pbrMetallicRoughness" : {
                "baseColorFactor" : [
                    0,
                    0,
                    0,
                    1
                ],
                "metallicFactor" : 0,
                "roughnessFactor" : 0.9473683834075928
            }
        },
        {
            "doubleSided" : true,
            "emissiveFactor" : [
                1,
                1,
                1
            ],
            "emissiveTexture" : {
                "index" : 2
            },
            "name" : "Material.003",
            "pbrMetallicRoughness" : {
                "baseColorFactor" : [
                    0,
                    0,
                    0,
                    1
                ],
                "metallicFactor" : 0,
                "roughnessFactor" : 0.5
            }
        },
        {
            "doubleSided" : true,
            "emissiveFactor" : [
                1,
                1,
                1
            ],
            "emissiveTexture" : {
                "index" : 3
            },
            "name" : "Material.014",
            "pbrMetallicRoughness" : {
                "baseColorFactor" : [
                    0,
                    0,
                    0,
                    1
                ],
                "metallicFactor" : 0,
                "roughnessFactor" : 0.5
            }
        },
        {
            "doubleSided" : true,
            "emissiveFactor" : [
                1,
                1,
                1
            ],
            "emissiveTexture" : {
                "index" : 4
            },
            "name" : "chair.001",
            "pbrMetallicRoughness" : {
                "baseColorFactor" : [
                    0,
                    0,
                    0,
                    1
                ],
                "metallicFactor" : 0,
                "roughnessFactor" : 0.9473683834075928
            }
        }
    ],
    "meshes" : [
        {
            "name" : "Cube.001",
            "primitives" : [
                {
                    "attributes" : {
                        "POSITION" : 0,
                        "TEXCOORD_0" : 1,
                        "NORMAL" : 2
                    },
                    "indices" : 3,
                    "material" : 0
                }
            ]
        },
        {
            "name" : "Cube.015",
            "primitives" : [
                {
                    "attributes" : {
                        "POSITION" : 4,
                        "TEXCOORD_0" : 5,
                        "NORMAL" : 6
                    },
                    "indices" : 7,
                    "material" : 0
                }
            ]
        },
        {
            "name" : "Cube.069",
            "primitives" : [
                {
                    "attributes" : {
                        "POSITION" : 8,
                        "TEXCOORD_0" : 9,
                        "NORMAL" : 10
                    },
                    "indices" : 11,
                    "material" : 0
                }
            ]
        },
        {
            "name" : "Cube.148",
            "primitives" : [
                {
                    "attributes" : {
                        "POSITION" : 12,
                        "TEXCOORD_0" : 13,
                        "NORMAL" : 14
                    },
                    "indices" : 15,
                    "material" : 1
                },
                {
                    "attributes" : {
                        "POSITION" : 16,
                        "TEXCOORD_0" : 17,
                        "NORMAL" : 18
                    },
                    "indices" : 19,
                    "material" : 2
                },
                {
                    "attributes" : {
                        "POSITION" : 20,
                        "TEXCOORD_0" : 21,
                        "NORMAL" : 22
                    },
                    "indices" : 23,
                    "material" : 3
                },
                {
                    "attributes" : {
                        "POSITION" : 24,
                        "TEXCOORD_0" : 25,
                        "NORMAL" : 26
                    },
                    "indices" : 27,
                    "material" : 4
                }
            ]
        }
    ],
    "textures" : [
        {
            "sampler" : 0,
            "source" : 0
        },
        {
            "sampler" : 0,
            "source" : 1
        },
        {
            "sampler" : 0,
            "source" : 1
        },
        {
            "sampler" : 0,
            "source" : 1
        },
        {
            "sampler" : 0,
            "source" : 1
        }
    ],
    "images" : [
        {
            "bufferView" : 4,
            "mimeType" : "image/png",
            "name" : "grandmother_tetxure"
        },
        {
            "bufferView" : 17,
            "mimeType" : "image/png",
            "name" : "chair_texture"
        }
    ],
    "accessors" : [
        {
            "bufferView" : 0,
            "componentType" : 5126,
            "count" : 436,
            "max" : [
                1.2254726886749268,
                1.4640328884124756,
                1.0992841720581055
            ],
            "min" : [
                -1.8701233863830566,
                -0.9418794512748718,
                -1.0992841720581055
            ],
            "type" : "VEC3"
        },
        {
            "bufferView" : 1,
            "componentType" : 5126,
            "count" : 436,
            "type" : "VEC2"
        },
        {
            "bufferView" : 2,
            "componentType" : 5126,
            "count" : 436,
            "type" : "VEC3"
        },
        {
            "bufferView" : 3,
            "componentType" : 5123,
            "count" : 660,
            "type" : "SCALAR"
        },
        {
            "bufferView" : 5,
            "componentType" : 5126,
            "count" : 449,
            "max" : [
                0.8111295700073242,
                1.1003166437149048,
                0.8524064421653748
            ],
            "min" : [
                -0.8713862299919128,
                -1.1142555475234985,
                -0.8524064421653748
            ],
            "type" : "VEC3"
        },
        {
            "bufferView" : 6,
            "componentType" : 5126,
            "count" : 449,
            "type" : "VEC2"
        },
        {
            "bufferView" : 7,
            "componentType" : 5126,
            "count" : 449,
            "type" : "VEC3"
        },
        {
            "bufferView" : 8,
            "componentType" : 5123,
            "count" : 720,
            "type" : "SCALAR"
        },
        {
            "bufferView" : 9,
            "componentType" : 5126,
            "count" : 112,
            "max" : [
                1,
                1.2767386436462402,
                1
            ],
            "min" : [
                -1,
                -1,
                -1
            ],
            "type" : "VEC3"
        },
        {
            "bufferView" : 10,
            "componentType" : 5126,
            "count" : 112,
            "type" : "VEC2"
        },
        {
            "bufferView" : 11,
            "componentType" : 5126,
            "count" : 112,
            "type" : "VEC3"
        },
        {
            "bufferView" : 12,
            "componentType" : 5123,
            "count" : 180,
            "type" : "SCALAR"
        },
        {
            "bufferView" : 13,
            "componentType" : 5126,
            "count" : 224,
            "max" : [
                1.120754361152649,
                5.897899627685547,
                1.8229997158050537
            ],
            "min" : [
                -2.52730393409729,
                0.09571552276611328,
                -1.0988869667053223
            ],
            "type" : "VEC3"
        },
        {
            "bufferView" : 14,
            "componentType" : 5126,
            "count" : 224,
            "type" : "VEC2"
        },
        {
            "bufferView" : 15,
            "componentType" : 5126,
            "count" : 224,
            "type" : "VEC3"
        },
        {
            "bufferView" : 16,
            "componentType" : 5123,
            "count" : 324,
            "type" : "SCALAR"
        },
        {
            "bufferView" : 18,
            "componentType" : 5126,
            "count" : 56,
            "max" : [
                1.6246119737625122,
                1.326716661453247,
                -0.5281816720962524
            ],
            "min" : [
                -2.6563758850097656,
                -0.2795400619506836,
                -0.8978714942932129
            ],
            "type" : "VEC3"
        },
        {
            "bufferView" : 19,
            "componentType" : 5126,
            "count" : 56,
            "type" : "VEC2"
        },
        {
            "bufferView" : 20,
            "componentType" : 5126,
            "count" : 56,
            "type" : "VEC3"
        },
        {
            "bufferView" : 21,
            "componentType" : 5123,
            "count" : 84,
            "type" : "SCALAR"
        },
        {
            "bufferView" : 22,
            "componentType" : 5126,
            "count" : 56,
            "max" : [
                1.6246119737625122,
                1.326716661453247,
                1.5346070528030396
            ],
            "min" : [
                -2.6563758850097656,
                -0.2795400619506836,
                1.1649171113967896
            ],
            "type" : "VEC3"
        },
        {
            "bufferView" : 23,
            "componentType" : 5126,
            "count" : 56,
            "type" : "VEC2"
        },
        {
            "bufferView" : 24,
            "componentType" : 5126,
            "count" : 56,
            "type" : "VEC3"
        },
        {
            "bufferView" : 25,
            "componentType" : 5123,
            "count" : 84,
            "type" : "SCALAR"
        },
        {
            "bufferView" : 26,
            "componentType" : 5126,
            "count" : 48,
            "max" : [
                1.120754599571228,
                2.5019612312316895,
                1.4856075048446655
            ],
            "min" : [
                -2.0971221923828125,
                0.09571552276611328,
                1.1986229419708252
            ],
            "type" : "VEC3"
        },
        {
            "bufferView" : 27,
            "componentType" : 5126,
            "count" : 48,
            "type" : "VEC2"
        },
        {
            "bufferView" : 28,
            "componentType" : 5126,
            "count" : 48,
            "type" : "VEC3"
        },
        {
            "bufferView" : 29,
            "componentType" : 5123,
            "count" : 72,
            "type" : "SCALAR"
        },
        {
            "bufferView" : 30,
            "componentType" : 5126,
            "count" : 241,
            "max" : [
                10
            ],
            "min" : [
                0
            ],
            "type" : "SCALAR"
        },
        {
            "bufferView" : 31,
            "componentType" : 5126,
            "count" : 241,
            "type" : "VEC4"
        }
    ],
    "bufferViews" : [
        {
            "buffer" : 0,
            "byteLength" : 5232,
            "byteOffset" : 0,
            "target" : 34962
        },
        {
            "buffer" : 0,
            "byteLength" : 3488,
            "byteOffset" : 5232,
            "target" : 34962
        },
        {
            "buffer" : 0,
            "byteLength" : 5232,
            "byteOffset" : 8720,
            "target" : 34962
        },
        {
            "buffer" : 0,
            "byteLength" : 1320,
            "byteOffset" : 13952,
            "target" : 34963
        },
        {
            "buffer" : 0,
            "byteLength" : 572095,
            "byteOffset" : 15272
        },
        {
            "buffer" : 0,
            "byteLength" : 5388,
            "byteOffset" : 587368,
            "target" : 34962
        },
        {
            "buffer" : 0,
            "byteLength" : 3592,
            "byteOffset" : 592756,
            "target" : 34962
        },
        {
            "buffer" : 0,
            "byteLength" : 5388,
            "byteOffset" : 596348,
            "target" : 34962
        },
        {
            "buffer" : 0,
            "byteLength" : 1440,
            "byteOffset" : 601736,
            "target" : 34963
        },
        {
            "buffer" : 0,
            "byteLength" : 1344,
            "byteOffset" : 603176,
            "target" : 34962
        },
        {
            "buffer" : 0,
            "byteLength" : 896,
            "byteOffset" : 604520,
            "target" : 34962
        },
        {
            "buffer" : 0,
            "byteLength" : 1344,
            "byteOffset" : 605416,
            "target" : 34962
        },
        {
            "buffer" : 0,
            "byteLength" : 360,
            "byteOffset" : 606760,
            "target" : 34963
        },
        {
            "buffer" : 0,
            "byteLength" : 2688,
            "byteOffset" : 607120,
            "target" : 34962
        },
        {
            "buffer" : 0,
            "byteLength" : 1792,
            "byteOffset" : 609808,
            "target" : 34962
        },
        {
            "buffer" : 0,
            "byteLength" : 2688,
            "byteOffset" : 611600,
            "target" : 34962
        },
        {
            "buffer" : 0,
            "byteLength" : 648,
            "byteOffset" : 614288,
            "target" : 34963
        },
        {
            "buffer" : 0,
            "byteLength" : 624318,
            "byteOffset" : 614936
        },
        {
            "buffer" : 0,
            "byteLength" : 672,
            "byteOffset" : 1239256,
            "target" : 34962
        },
        {
            "buffer" : 0,
            "byteLength" : 448,
            "byteOffset" : 1239928,
            "target" : 34962
        },
        {
            "buffer" : 0,
            "byteLength" : 672,
            "byteOffset" : 1240376,
            "target" : 34962
        },
        {
            "buffer" : 0,
            "byteLength" : 168,
            "byteOffset" : 1241048,
            "target" : 34963
        },
        {
            "buffer" : 0,
            "byteLength" : 672,
            "byteOffset" : 1241216,
            "target" : 34962
        },
        {
            "buffer" : 0,
            "byteLength" : 448,
            "byteOffset" : 1241888,
            "target" : 34962
        },
        {
            "buffer" : 0,
            "byteLength" : 672,
            "byteOffset" : 1242336,
            "target" : 34962
        },
        {
            "buffer" : 0,
            "byteLength" : 168,
            "byteOffset" : 1243008,
            "target" : 34963
        },
        {
            "buffer" : 0,
            "byteLength" : 576,
            "byteOffset" : 1243176,
            "target" : 34962
        },
        {
            "buffer" : 0,
            "byteLength" : 384,
            "byteOffset" : 1243752,
            "target" : 34962
        },
        {
            "buffer" : 0,
            "byteLength" : 576,
            "byteOffset" : 1244136,
            "target" : 34962
        },
        {
            "buffer" : 0,
            "byteLength" : 144,
            "byteOffset" : 1244712,
            "target" : 34963
        },
        {
            "buffer" : 0,
            "byteLength" : 964,
            "byteOffset" : 1244856
        },
        {
            "buffer" : 0,
            "byteLength" : 3856,
            "byteOffset" : 1245820
        }
    ],
    "samplers" : [
        {
            "magFilter" : 9729,
            "minFilter" : 9987
        }
    ],
    "buffers" : [
        {
            "byteLength" : 1249676,
            "uri" : "data:application/octet-stream;base64,"
        }
    ]
}
