{
    "asset" : {
        "generator" : "Khronos glTF Blender I/O v3.4.50",
        "version" : "2.0"
    },
    "extensionsUsed" : [
        "KHR_materials_specular",
        "KHR_materials_ior"
    ],
    "scene" : 0,
    "scenes" : [
        {
            "name" : "Scene",
            "nodes" : [
                0,
                1,
                2
            ]
        }
    ],
    "nodes" : [
        {
            "name" : "Cube.105",
            "rotation" : [
                -0.5,
                -0.5000000596046448,
                0.5,
                0.5
            ],
            "scale" : [
                -9.43101692199707,
                -0.17376232147216797,
                -17.177345275878906
            ],
            "translation" : [
                -7.5222883224487305,
                2.9477720260620117,
                -5.464008808135986
            ]
        },
        {
            "mesh" : 0,
            "name" : "Cube.137",
            "rotation" : [
                0,
                0.18103386461734772,
                0,
                0.9834768772125244
            ],
            "scale" : [
                0.882039487361908,
                0.882039487361908,
                0.7566894292831421
            ],
            "translation" : [
                3.0845353603363037,
                2.273677349090576,
                4.330492973327637
            ]
        },
        {
            "mesh" : 1,
            "name" : "Cube.076",
            "rotation" : [
                0,
                -0.9841406345367432,
                0,
                0.17739015817642212
            ],
            "scale" : [
                0.8777844905853271,
                1.2614045143127441,
                1.2102634906768799
            ],
            "translation" : [
                2.178452491760254,
                4.2588911056518555,
                2.3517513275146484
            ]
        }
    ],
    "materials" : [
        {
            "doubleSided" : true,
            "emissiveFactor" : [
                1,
                1,
                1
            ],
            "emissiveTexture" : {
                "index" : 0
            },
            "extensions" : {
                "KHR_materials_specular" : {
                    "specularColorFactor" : [
                        0,
                        0,
                        0
                    ]
                },
                "KHR_materials_ior" : {
                    "ior" : 1.4500000476837158
                }
            },
            "name" : "sofa.001",
            "pbrMetallicRoughness" : {
                "baseColorFactor" : [
                    0.06124596297740936,
                    0.05780534818768501,
                    0.11443537473678589,
                    1
                ]
            }
        },
        {
            "doubleSided" : true,
            "emissiveFactor" : [
                1,
                1,
                1
            ],
            "emissiveTexture" : {
                "index" : 1
            },
            "name" : "man",
            "pbrMetallicRoughness" : {
                "baseColorFactor" : [
                    0,
                    0,
                    0,
                    1
                ]
            }
        }
    ],
    "meshes" : [
        {
            "name" : "Cube.039",
            "primitives" : [
                {
                    "attributes" : {
                        "POSITION" : 0,
                        "TEXCOORD_0" : 1,
                        "NORMAL" : 2
                    },
                    "indices" : 3,
                    "material" : 0
                }
            ]
        },
        {
            "name" : "Cube.022",
            "primitives" : [
                {
                    "attributes" : {
                        "POSITION" : 4,
                        "TEXCOORD_0" : 5,
                        "NORMAL" : 6
                    },
                    "indices" : 7,
                    "material" : 1
                }
            ]
        }
    ],
    "textures" : [
        {
            "sampler" : 0,
            "source" : 0
        },
        {
            "sampler" : 0,
            "source" : 1
        }
    ],
    "images" : [
        {
            "bufferView" : 4,
            "mimeType" : "image/png",
            "name" : "sofa_texture.002"
        },
        {
            "bufferView" : 9,
            "mimeType" : "image/png",
            "name" : "man_texture"
        }
    ],
    "accessors" : [
        {
            "bufferView" : 0,
            "componentType" : 5126,
            "count" : 178,
            "max" : [
                2.3886139392852783,
                1.502233862876892,
                0.7053070664405823
            ],
            "min" : [
                -2.430690288543701,
                -2.2137699127197266,
                -6.105648040771484
            ],
            "type" : "VEC3"
        },
        {
            "bufferView" : 1,
            "componentType" : 5126,
            "count" : 178,
            "type" : "VEC2"
        },
        {
            "bufferView" : 2,
            "componentType" : 5126,
            "count" : 178,
            "type" : "VEC3"
        },
        {
            "bufferView" : 3,
            "componentType" : 5123,
            "count" : 258,
            "type" : "SCALAR"
        },
        {
            "bufferView" : 5,
            "componentType" : 5126,
            "count" : 826,
            "max" : [
                3.693352222442627,
                2.7569401264190674,
                1.9297425746917725
            ],
            "min" : [
                -1.2594293355941772,
                -2.6307930946350098,
                -1.9297425746917725
            ],
            "type" : "VEC3"
        },
        {
            "bufferView" : 6,
            "componentType" : 5126,
            "count" : 826,
            "type" : "VEC2"
        },
        {
            "bufferView" : 7,
            "componentType" : 5126,
            "count" : 826,
            "type" : "VEC3"
        },
        {
            "bufferView" : 8,
            "componentType" : 5123,
            "count" : 1284,
            "type" : "SCALAR"
        }
    ],
    "bufferViews" : [
        {
            "buffer" : 0,
            "byteLength" : 2136,
            "byteOffset" : 0,
            "target" : 34962
        },
        {
            "buffer" : 0,
            "byteLength" : 1424,
            "byteOffset" : 2136,
            "target" : 34962
        },
        {
            "buffer" : 0,
            "byteLength" : 2136,
            "byteOffset" : 3560,
            "target" : 34962
        },
        {
            "buffer" : 0,
            "byteLength" : 516,
            "byteOffset" : 5696,
            "target" : 34963
        },
        {
            "buffer" : 0,
            "byteLength" : 1354302,
            "byteOffset" : 6212
        },
        {
            "buffer" : 0,
            "byteLength" : 9912,
            "byteOffset" : 1360516,
            "target" : 34962
        },
        {
            "buffer" : 0,
            "byteLength" : 6608,
            "byteOffset" : 1370428,
            "target" : 34962
        },
        {
            "buffer" : 0,
            "byteLength" : 9912,
            "byteOffset" : 1377036,
            "target" : 34962
        },
        {
            "buffer" : 0,
            "byteLength" : 2568,
            "byteOffset" : 1386948,
            "target" : 34963
        },
        {
            "buffer" : 0,
            "byteLength" : 403125,
            "byteOffset" : 1389516
        }
    ],
    "samplers" : [
        {
            "magFilter" : 9729,
            "minFilter" : 9987
        }
    ],
    "buffers" : [
        {
            "byteLength" : 1792644,
            "uri" : "data:application/octet-stream;base64,"
        }
    ]
}
